<svg id="Layer_1" xmlns="http://www.w3.org/2000/svg" viewBox="0 0 1200 302.6"><style>.st0{fill:#8ab73f}.st1{fill:#273755}.st2{fill:#263754}</style><path class="st0" d="M1200 189.2H138.3L0 302.6h1061.7z"/><path class="st1" d="M223 237.8l-2.9 16.2h13.6l-1.1 5.4h-13.4l-3.1 17.4h-5.7l3.1-17.4h-17.8l-3.1 17.4h-5.7l3.1-17.4h-13.1l1.1-5.4h12.9l2.9-16.2h-13l1.1-5.5h12.9l3.1-17.3h5.7l-3.1 17.3h17.8l3.1-17.3h5.7l-3.1 17.3h13.6l-1.1 5.5H223zm-5.8 0h-17.8l-2.9 16.2h17.8l2.9-16.2zM323.4 221.7h-24.5v55.1h-7.1v-55.1h-24.4V215h56v6.7zM405.7 270v6.8h-48V215h47.5v6.7h-40.4v20.7h26v6.7h-26V270h40.9zM498.7 276.2v.6h-7.3l-6.7-14.5h-35.9l-6.7 14.5h-7.3v-.6l28.8-61.2h6.4l28.7 61.2zm-17.3-20.7l-14.8-31.9-14.8 31.9h29.6zM594.8 215v61.8h-7.1v-49.7L564 259h-.9l-23.8-31.9v49.7h-7.1V215h6.4l25 33.5 25.1-33.5h6.1zM684.1 232.7h-18.5v44.1h-19.4v-44.1h-18.5V215h56.4v17.7zM773.3 275.9v.9H753L741.3 259h-8.6v17.8h-19.4V215h33.5c13.3 0 22.9 8.8 22.9 22 0 8.4-4 15.1-10.3 18.8l13.9 20.1zm-40.6-32.8h11.2c4.1 0 6.4-2.2 6.4-5.6 0-3.4-2.4-5.6-6.4-5.6h-11.2v11.2zM854.5 259.5v17.3h-52.1V215H854v17.3h-32.2v5.9h20.3v15.2h-20.3v6.1h32.7zM937.4 259.5v17.3h-52.1V215H937v17.3h-32.2v5.9h20.3v15.2h-20.3v6.1h32.6zM964.3 270.1l7.9-16.1c6.6 5.3 14 7.4 22.7 7.4 5.6 0 8.9-.6 8.9-3.2 0-1.9-2-2.4-12.1-4-13.6-2.2-25.8-4.2-25.8-18.8 0-13.9 11.6-21.9 27.7-21.9 14.7 0 23.8 6.3 27.4 14.4l-15.4 7.7c-1.7-4.6-7-5.6-12.3-5.6-6.6 0-8.1 1.7-8.1 3.6 0 1.8 1.9 2.5 12 4 13.3 2 25.9 4.9 25.9 19.5 0 14.2-12.3 21.1-29.8 21.1-11.4 0-20.7-2.8-29-8.1zM1025.1 275.3l.9-1.6c.8.7 1.9 1 3.1 1 1.1 0 1.8-.3 1.8-1 0-.5-.4-.6-2.2-.8-1.8-.3-3.5-.5-3.5-2.4 0-1.7 1.5-2.8 3.6-2.8 1.9 0 3.2.8 3.7 1.9l-1.6.8c-.3-.7-1-1-2.1-1-1.2 0-1.7.4-1.7 1 0 .5.4.6 2 .9 1.8.3 3.6.5 3.6 2.5 0 1.8-1.6 2.8-3.9 2.8-1.3-.1-2.6-.5-3.7-1.3zM1043.2 267.9v8.4h-1.9v-5.2l-2.4 3.2h-.2l-2.4-3.2v5.2h-1.9v-8.4h1.6l2.8 3.8 2.8-3.8h1.6z"/><path class="st2" d="M614.7 0c-4.8 0-48.7 152.6-44.2 157.8C575 163.1 593 170 614 170s39.6-10 41.1-14-33-156-40.4-156z"/><path class="st0" d="M632.2 122l-1.4-1.4-16.1 16V49h-1.9v60.2l-16-16.1-1.4 1.4 17.4 17.4v9.3l-16-16.1-1.4 1.4 17.4 17.4v67.8h1.9v-52.3z"/><path class="st2" d="M564 77.3c-2.9 0-29.1 91-26.4 94.2 2.7 3.1 13.4 7.3 26 7.3 12.5 0 23.6-6 24.6-8.4.8-2.4-19.8-93.1-24.2-93.1z"/><path class="st0" d="M574.4 150.1l-.8-.8-9.6 9.5v-52.3h-1.1v35.9l-9.6-9.5-.8.8 10.4 10.4v5.5l-9.6-9.6-.8.9 10.4 10.4v40.4h1.1v-31.2zM714.6 77.3c-2.9 0-29.1 91-26.4 94.2 2.7 3.1 13.4 7.3 26 7.3s23.6-6 24.6-8.4c.8-2.4-19.8-93.1-24.2-93.1z"/><path class="st1" d="M725 150.1l-.8-.8-9.6 9.5v-52.3h-1.1v35.9l-9.6-9.5-.8.8 10.4 10.4v5.5l-9.6-9.6-.8.9 10.4 10.4v40.4h1.1v-31.2z"/></svg>